# xmcd
#
# Track frame offsets:
#	150
#	17953
#	32665
#	48936
#	68426
#	89282
#	102781
#	121198
#	138333
#	155288
#	173301
#
# Disc length: 2549 seconds
#
# Revision: 1
# Processed by: cddbd v1.5.1PL0 Copyright (c) Steve Scherf et al.
# Submitted via: EasyCDDAExtractor 7.1.1.1
#
DISCID=7809f30b
DTITLE=Garth Brooks - In Pieces
DYEAR=1900
DGENRE=Country
TTITLE0=Standing Outside The Fire
TTITLE1=The Night I Called The Old Man Out
TTITLE2=American Honky-Tonk Bar Association
TTITLE3=One Night A Day
TTITLE4=Ain't Goin' Down
TTITLE5=Anonymous
TTITLE6=Kickin' And Screamin'
TTITLE7=The Red Strokes
TTITLE8=Callin' Baton Rouge
TTITLE9=The Night Will Only Know
TTITLE10=The Cowboy Song
EXTD=
EXTT0=
EXTT1=
EXTT2=
EXTT3=
EXTT4=
EXTT5=
EXTT6=
EXTT7=
EXTT8=
EXTT9=
EXTT10=
PLAYORDER=
